<?xml version="1.0" encoding="UTF-8"?>
<svg width="107px" height="20px" viewBox="0 0 107 20" version="1.1" xmlns="http://www.w3.org/2000/svg" xmlns:xlink="http://www.w3.org/1999/xlink">
    <!-- Generator: Sketch 60.1 (88133) - https://sketch.com -->
    <title>Asset 1</title>
    <desc>Created with Sketch.</desc>
    <defs>
        <linearGradient x1="68.8884423%" y1="13.0618588%" x2="44.9511647%" y2="100.303378%" id="linearGradient-1">
            <stop stop-color="#58ACDB" offset="0%"></stop>
            <stop stop-color="#0075BB" offset="50%"></stop>
            <stop stop-color="#293F76" offset="100%"></stop>
        </linearGradient>
        <linearGradient x1="39.1787449%" y1="77.0133637%" x2="51.6650812%" y2="30.1717898%" id="linearGradient-2">
            <stop stop-color="#58ACDB" offset="0%"></stop>
            <stop stop-color="#0075BB" offset="50%"></stop>
            <stop stop-color="#293F76" offset="100%"></stop>
        </linearGradient>
        <linearGradient x1="1.16401634%" y1="47.1076864%" x2="100.687413%" y2="52.2131642%" id="linearGradient-3">
            <stop stop-color="#58ACDB" offset="0%"></stop>
            <stop stop-color="#0075BB" offset="50%"></stop>
            <stop stop-color="#293F76" offset="100%"></stop>
        </linearGradient>
        <linearGradient x1="52.0625433%" y1="116.648412%" x2="47.1092559%" y2="-30.2847755%" id="linearGradient-4">
            <stop stop-color="#0075BB" offset="0%"></stop>
            <stop stop-color="#1281C2" offset="13%"></stop>
            <stop stop-color="#429ED3" offset="39%"></stop>
            <stop stop-color="#58ACDB" offset="50%"></stop>
            <stop stop-color="#293F76" offset="100%"></stop>
        </linearGradient>
        <linearGradient x1="14.3428064%" y1="20.1879152%" x2="88.8543517%" y2="73.1235229%" id="linearGradient-5">
            <stop stop-color="#58ACDB" offset="0%"></stop>
            <stop stop-color="#0075BB" offset="50%"></stop>
            <stop stop-color="#293F76" offset="100%"></stop>
        </linearGradient>
        <linearGradient x1="48.8973017%" y1="87.2044591%" x2="53.4383734%" y2="8.91006536%" id="linearGradient-6">
            <stop stop-color="#58ACDB" offset="0%"></stop>
            <stop stop-color="#0075BB" offset="50%"></stop>
            <stop stop-color="#293F76" offset="100%"></stop>
        </linearGradient>
        <linearGradient x1="105.595027%" y1="73.5239194%" x2="5.95026643%" y2="32.1847908%" id="linearGradient-7">
            <stop stop-color="#293F76" offset="0%"></stop>
            <stop stop-color="#0075BB" offset="50%"></stop>
            <stop stop-color="#FFFFFF" offset="100%"></stop>
        </linearGradient>
    </defs>
    <g id="Page-1" stroke="none" stroke-width="1" fill="none" fill-rule="evenodd">
        <g id="02-login" transform="translate(-133.000000, -134.000000)">
            <g id="Asset-1" transform="translate(133.000000, 134.000000)">
                <path d="M21.3230769,7.36923077 C21.176607,8.26464191 20.9500569,9.14509796 20.6461538,10 C21.1183974,10.154227 21.4644477,10.5599979 21.542186,11.0506676 C21.6199243,11.5413372 21.4162479,12.034203 21.0148042,12.3268511 C20.6133604,12.6194991 20.0818128,12.6626034 19.6384615,12.4384615 L18.2538462,15.2538462 C22.6538462,15.3384615 24.2,14.6384615 24.9153846,13.0538462 C25.6923077,11.3307692 24.5538462,8.35384615 21.3230769,7.36923077 Z" id="Shape" fill="url(#linearGradient-1)"></path>
                <path d="M18.5230769,2.8 C17.334308,1.58672318 15.7345021,0.862282801 14.0384615,0.769230769 C15.3076923,1.33076923 17.1692308,4.07692308 15.0846154,8 C14.3923077,9.30769231 13.7384615,10.6153846 13.0615385,11.7230769 C13.5649564,12.8801945 14.2137716,13.9684462 14.9923077,14.9615385 C15.6034453,15.5555563 16.5034586,15.741559 17.3,15.4384615 C17.3,15.4384615 19.8923077,10.1384615 20.2153846,8.80769231 C20.7590652,6.64668318 20.1147857,4.35949102 18.5230769,2.8 Z" id="Shape" fill="url(#linearGradient-2)" fill-rule="nonzero"></path>
                <path d="M14.0384615,0.769230769 C11.9939294,0.660716608 10.0033017,1.44686013 8.58461538,2.92307692 C8.40701652,3.11229543 8.24495361,3.31551717 8.1,3.53076923 C9.6317061,3.98602671 10.9085969,5.0514933 11.6307692,6.47692308 C13.5461538,3.49230769 15.8076923,4.25384615 16.0230769,4.56153846 C16.1121348,3.02803929 15.3491984,1.57018019 14.0384615,0.769230769 L14.0384615,0.769230769 Z" id="Shape" fill="url(#linearGradient-3)" fill-rule="nonzero"></path>
                <path d="M14.0461538,0.769230769 C14.0461538,0.769230769 20.2,1.76153846 17.7615385,8.50769231 C16.9774503,10.6920315 16.0018607,12.8028058 14.8461538,14.8153846 C14.151449,13.8509884 13.5536766,12.8203464 13.0615385,11.7384615 C13.7384615,10.6307692 14.3923077,9.32307692 15.0846154,8.01538462 C17.1615385,4.1 15.3153846,1.36153846 14.0461538,0.784615385 L14.0461538,0.769230769 Z" id="Shape" fill="url(#linearGradient-4)"></path>
                <path d="M0.1,9.27692308 C0.623076923,6.34615385 3.45384615,4.03076923 6.15384615,4.16153846 C8.85384615,4.29230769 10,5.90769231 10.9076923,7.43076923 C11.8153846,8.95384615 14.0692308,14.1769231 14.9923077,14.9769231 C15.6595877,15.5804027 16.6371559,15.6917712 17.4230769,15.2538462 C16.5,17.3076923 15.1615385,18.7153846 13.7538462,19.1 C13.0660054,19.2953794 12.3297655,19.2239531 11.6923077,18.9 C10.8312142,18.421484 10.1282044,17.702436 9.66923077,16.8307692 C8.94615385,15.5923077 8.33076923,14.4461538 8.33076923,14.4461538 L6.48461538,10.3384615 C5.28461538,7.66153846 4.17692308,7.06923077 2.57692308,7.26153846 C1.45069767,7.43200383 0.503899012,8.19649964 0.1,9.26153846" id="Shape" fill="url(#linearGradient-5)"></path>
                <path d="M6.00769231,12.1769231 C4.95634662,12.1777454 4.04508909,11.4491958 3.81448142,10.4234529 C3.58387375,9.39771 4.09562151,8.34924016 5.04615385,7.9 C2.30769231,6.15384615 0.669230769,7.80769231 0.1,9.27692308 C-0.215384615,10.7076923 -0.253846154,15.7461538 7.79230769,15.7461538 L6.25384615,12.1538462 L6.00769231,12.1769231 Z" id="Shape" fill="url(#linearGradient-6)" fill-rule="nonzero"></path>
                <path d="M0.1,9.27692308 C0.1,9.27692308 0.961538462,5.96153846 4.28461538,6.15384615 C5.77692308,6.25384615 6.64615385,7.11538462 7.43846154,8.27692308 C8.58461538,10 9.38461538,12.3076923 10.2076923,13.8461538 C11.0307692,15.3846154 12.2384615,17 13.4076923,17.1461538 C15.7153846,17.5230769 17.4230769,15.2769231 17.4230769,15.2769231 C16.5,17.3307692 15.1615385,18.7384615 13.7538462,19.1230769 C13.0692308,19.3076923 11.2846154,19.6692308 9.66923077,16.8538462 C8.94615385,15.6153846 8.33076923,14.4692308 8.33076923,14.4692308 L6.48461538,10.3615385 C5.42307692,8.05384615 4.04615385,7.14615385 2.57692308,7.28461538 C1.45069767,7.45508075 0.503899012,8.21957656 0.1,9.28461538" id="Shape" fill="url(#linearGradient-7)"></path>
                <path d="M42.3076923,15.7 C43.1670022,15.7006046 43.9578891,15.2313844 44.3692308,14.4769231 C44.7282755,13.8974592 44.9150339,13.2277972 44.9076923,12.5461538 C44.9308905,11.853352 44.7194709,11.1730144 44.3076923,10.6153846 C43.8788696,10.0488836 43.1934897,9.73655859 42.4846154,9.78461538 C40.6076923,9.78461538 39.8538462,11.2384615 39.8076923,12.7692308 C39.7449159,13.3922599 39.8939643,14.0182632 40.2307692,14.5461538 C40.6662602,15.2751907 41.458628,15.7153951 42.3076923,15.7 Z M42.3076923,17.0923077 C39.2692308,17.0923077 37.8230769,15.2615385 37.9153846,12.6307692 C37.9923077,10.1923077 39.8384615,8.39230769 42.5307692,8.39230769 C45.3846154,8.39230769 46.8384615,10.3461538 46.7615385,12.7769231 C46.745359,13.9405007 46.2664845,15.0497361 45.4307431,15.8594959 C44.5950018,16.6692557 43.4712007,17.1128717 42.3076923,17.0923077 Z" id="Shape" fill="#000000" fill-rule="nonzero"></path>
                <polygon id="Shape" fill="#000000" fill-rule="nonzero" points="49.6538462 12.6076923 46.8 8.57692308 48.8384615 8.57692308 50.6230769 11.4153846 52.7230769 8.57692308 54.7615385 8.57692308 51.5076923 12.5692308 54.5615385 16.8615385 52.5230769 16.8615385 50.5076923 13.7923077 48.2461538 16.8615385 46.1923077 16.8615385"></polygon>
                <polygon id="Shape" fill="#000000" fill-rule="nonzero" points="34.0153846 12.9769231 38.4692308 5.21538462 40.4230769 5.21538462 33.5615385 17.4230769 29.4461538 5.21538462 31.4307692 5.21538462"></polygon>
                <path d="M56.2846154,12.4076923 C57.8230769,12.4076923 61.8692308,12.0846154 60.1307692,10.2615385 C58.9076923,9.06153846 57.4307692,10.0153846 57.0538462,10.4923077 C56.5661572,11.0116147 56.2915761,11.6953217 56.2846154,12.4076923 L56.2846154,12.4076923 Z M56.4153846,13.6538462 C56.4819501,14.1087315 56.6559909,14.5411965 56.9230769,14.9153846 C57.9384615,16.3076923 60.5230769,15.4615385 61.5384615,14.5384615 L61.5846154,16.2076923 C59.8923077,17.2307692 56.9692308,17.5769231 55.4846154,16.0846154 C54.7100831,15.2051491 54.3366187,14.0429501 54.4538462,12.8769231 C54.5307692,10.5 55.9230769,8.57692308 58.7076923,8.4 C59.5519306,8.32885348 60.3982155,8.51096541 61.1384615,8.92307692 C62.1516869,9.39811604 62.6651388,10.542754 62.3461538,11.6153846 C61.8,13.1384615 58.5230769,13.6692308 56.4153846,13.6538462 Z" id="Shape" fill="#000000" fill-rule="nonzero"></path>
                <path d="M63.2230769,5.80769231 L65.0461538,5.08461538 L64.7230769,14.6153846 C64.6908472,14.8501835 64.7686506,15.0867308 64.9339659,15.2565547 C65.0992811,15.4263786 65.3336498,15.5105171 65.5692308,15.4846154 L66.6076923,15.4846154 L66.2384615,16.8461538 L64.9692308,16.8461538 C63.7076923,16.8461538 62.8692308,16.1230769 62.9076923,14.9923077 L63.2230769,5.80769231 Z" id="Shape" fill="#000000" fill-rule="nonzero"></path>
                <path d="M76.1538462,15.1538462 C74.9981662,16.3805501 73.3687708,17.0480133 71.6846154,16.9846154 C70.1337244,17.0892186 68.625639,16.4494248 67.6230769,15.2615385 C66.7209699,14.0551618 66.2840014,12.5640069 66.3923077,11.0615385 C66.5076923,7.98461538 68.5,5.21538462 72.2769231,5.21538462 C73.6496107,5.1246328 75.0014886,5.58726312 76.0307692,6.5 L76.1769231,6.64615385 L74.8692308,7.75384615 L74.6923077,7.56923077 C74.0155734,6.91939512 73.0980544,6.58194892 72.1615385,6.63846154 C71.161177,6.6096591 70.1969148,7.01330377 69.5153846,7.74615385 C68.0384615,9.28461538 67.9769231,12.4692308 69.2307692,14.2615385 C69.8040308,15.1058963 70.7725455,15.5945163 71.7923077,15.5538462 C73.0528051,15.5714195 74.2550112,15.023936 75.0692308,14.0615385 L76.2846154,15 L76.1538462,15.1538462 Z" id="Shape" fill="#000000" fill-rule="nonzero"></path>
                <path d="M104.615385,14.7692308 L104.769231,10.2769231 C102.707692,9.2 100.246154,10.2230769 100.246154,12.7230769 C100.220423,13.4126598 100.423241,14.0914247 100.823077,14.6538462 C101.676923,15.8153846 103.976923,15.6461538 104.615385,14.7692308 L104.615385,14.7692308 Z M104.815385,8.76923077 L104.976923,5.69230769 L106.738462,5.13846154 L106.415385,16.8923077 L104.646154,16.8923077 C104.646154,16.5307692 104.646154,16.6 104.646154,16.2076923 C102.792308,17.9461538 98.2076923,16.8076923 98.3615385,12.7615385 C98.3472832,11.5870283 98.8193085,10.4588973 99.6657447,9.6445121 C100.512181,8.83012689 101.657684,8.4019787 102.830769,8.46153846 C103.511391,8.4660576 104.187725,8.5697102 104.838462,8.76923077 L104.815385,8.76923077 Z" id="Shape" fill="#000000" fill-rule="nonzero"></path>
                <path d="M95.8615385,14.7307692 L96.0692308,8.52307692 L97.8923077,8.52307692 L97.6461538,16.8615385 L95.8307692,16.8615385 C95.8307692,16.6384615 95.8307692,16.3538462 95.8307692,16.0923077 C95.1224317,16.6342548 94.2445721,16.906882 93.3538462,16.8615385 C91.4615385,16.8615385 90.0461538,15.9692308 90.1076923,13.9923077 L90.3,8.5 L92.1076923,8.5 L91.9307692,13.8846154 C91.9065432,14.3309977 92.0776769,14.7658429 92.3996337,15.0759847 C92.7215904,15.3861265 93.1625271,15.5408904 93.6076923,15.5 C94.4255901,15.5136284 95.2226366,15.2415989 95.8615385,14.7307692 L95.8615385,14.7307692 Z" id="Shape" fill="#000000" fill-rule="nonzero"></path>
                <path d="M85.0384615,15.5923077 C85.8879891,15.6018193 86.6740379,15.1437833 87.0846154,14.4 C87.4447929,13.8380832 87.6320263,13.1827662 87.6230769,12.5153846 C87.6484183,11.8377341 87.4392149,11.1720867 87.0307692,10.6307692 C86.6001315,10.0724175 85.9188091,9.76639981 85.2153846,9.81538462 C83.3538462,9.81538462 82.6076923,11.2307692 82.5538462,12.7307692 C82.499794,13.3410189 82.6484991,13.9520616 82.9769231,14.4692308 C83.4172892,15.1816597 84.2010786,15.6086494 85.0384615,15.5923077 L85.0384615,15.5923077 Z M85.0384615,16.9538462 C82.0230769,16.9538462 80.5923077,15.1615385 80.6769231,12.5923077 C80.7615385,10.2153846 82.5923077,8.45384615 85.2923077,8.45384615 C86.4466573,8.36102696 87.5825538,8.78602325 88.3924717,9.61377411 C89.2023895,10.441525 89.6025497,11.5864069 89.4846154,12.7384615 C89.452458,13.8824621 88.9663862,14.9666434 88.1336741,15.7517307 C87.300962,16.536818 86.1900651,16.9582711 85.0461538,16.9230769 L85.0384615,16.9538462 Z" id="Shape" fill="#000000" fill-rule="nonzero"></path>
                <path d="M77.3230769,5.78461538 L79.1461538,5.06153846 L78.8230769,14.6153846 C78.7903585,14.8516721 78.8691128,15.0897687 79.0362747,15.2599425 C79.2034367,15.4301164 79.4400891,15.5131095 79.6769231,15.4846154 L80.7153846,15.4846154 L80.3461538,16.8461538 L79.0692308,16.8461538 C77.8153846,16.8461538 76.9769231,16.1230769 77.0153846,14.9923077 L77.3230769,5.78461538 Z" id="Shape" fill="#000000" fill-rule="nonzero"></path>
            </g>
        </g>
    </g>
</svg>